<?xml version="1.0" encoding="utf-8"?>
<!-- Generator: Adobe Illustrator 22.0.0, SVG Export Plug-In . SVG Version: 6.00 Build 0)  -->
<svg version="1.1" id="Capa_1" xmlns="http://www.w3.org/2000/svg" xmlns:xlink="http://www.w3.org/1999/xlink" x="0px" y="0px"
	 viewBox="0 0 165.3 60.3" style="enable-background:new 0 0 165.3 60.3;" xml:space="preserve">
<style type="text/css">
	.st0{fill:#FF0000;}
	.st1{fill:#FFFFFF;}
</style>
<g>
	<rect x="2.4" y="2.5" width="160.4" height="55.3"/>
	<rect x="3.7" y="4" class="st1" width="157.8" height="38"/>
	<g>
		<path d="M6.3,36V6.9h15c2.8,0,4.9,0.2,6.4,0.7c1.5,0.5,2.7,1.4,3.6,2.7c0.9,1.3,1.4,2.9,1.4,4.7c0,1.6-0.3,3-1,4.2
			c-0.7,1.2-1.6,2.1-2.8,2.9c-0.8,0.5-1.8,0.8-3.2,1.2c1.1,0.4,1.9,0.7,2.3,1.1c0.3,0.2,0.8,0.7,1.4,1.5c0.6,0.8,1,1.4,1.3,1.8
			L35,36H24.8L20,27.1c-0.6-1.2-1.2-1.9-1.6-2.2c-0.6-0.5-1.4-0.7-2.2-0.7h-0.8V36H6.3z M15.4,18.7h3.8c0.4,0,1.2-0.1,2.4-0.4
			c0.6-0.1,1.1-0.4,1.5-0.9c0.4-0.5,0.6-1.1,0.6-1.7c0-0.9-0.3-1.7-0.9-2.2s-1.7-0.8-3.4-0.8h-4V18.7z"/>
		<path d="M55.8,31.2H45.6L44.2,36H35l11-29.1h9.8L66.7,36h-9.4L55.8,31.2z M53.9,24.9l-3.2-10.5l-3.2,10.5H53.9z"/>
		<path d="M88.2,24.1l7.9,2.4c-0.5,2.2-1.4,4.1-2.5,5.5c-1.1,1.5-2.6,2.6-4.2,3.4c-1.7,0.8-3.8,1.1-6.4,1.1c-3.2,0-5.8-0.5-7.8-1.4
			c-2-0.9-3.7-2.5-5.2-4.9c-1.5-2.3-2.2-5.3-2.2-8.9c0-4.8,1.3-8.5,3.8-11.1c2.6-2.6,6.2-3.9,10.9-3.9c3.7,0,6.6,0.7,8.7,2.2
			c2.1,1.5,3.7,3.8,4.7,6.8l-7.9,1.8c-0.3-0.9-0.6-1.5-0.9-1.9c-0.5-0.7-1.1-1.2-1.8-1.6c-0.7-0.4-1.5-0.6-2.4-0.6
			c-2,0-3.6,0.8-4.7,2.5c-0.8,1.2-1.2,3.1-1.2,5.7c0,3.2,0.5,5.4,1.5,6.6c1,1.2,2.4,1.8,4.1,1.8c1.7,0,3-0.5,3.9-1.5
			C87.2,27.4,87.8,26,88.2,24.1z"/>
		<path d="M98.9,26.4l8.6-0.5c0.2,1.4,0.6,2.5,1.1,3.2c0.9,1.2,2.3,1.8,4,1.8c1.3,0,2.3-0.3,3-0.9c0.7-0.6,1-1.3,1-2.1
			c0-0.8-0.3-1.4-1-2s-2.2-1.2-4.6-1.7c-3.9-0.9-6.8-2.1-8.4-3.5c-1.7-1.5-2.5-3.3-2.5-5.6c0-1.5,0.4-2.9,1.3-4.2s2.2-2.4,3.9-3.1
			c1.7-0.8,4.1-1.1,7.2-1.1c3.7,0,6.6,0.7,8.5,2.1c2,1.4,3.1,3.6,3.5,6.6l-8.5,0.5c-0.2-1.3-0.7-2.3-1.4-2.9c-0.7-0.6-1.7-0.9-3-0.9
			c-1,0-1.8,0.2-2.4,0.7c-0.5,0.4-0.8,1-0.8,1.6c0,0.5,0.2,0.9,0.7,1.3c0.4,0.4,1.4,0.7,3,1.1c3.9,0.8,6.8,1.7,8.5,2.6
			c1.7,0.9,2.9,1.9,3.7,3.2s1.2,2.7,1.2,4.3c0,1.9-0.5,3.6-1.6,5.2c-1,1.6-2.5,2.8-4.3,3.6c-1.9,0.8-4.2,1.2-7,1.2
			c-5,0-8.4-1-10.3-2.9C100.2,31.8,99.1,29.3,98.9,26.4z"/>
		<path d="M128.7,21.5c0-4.8,1.3-8.5,4-11.1c2.6-2.6,6.3-4,11.1-4c4.8,0,8.6,1.3,11.2,3.9c2.6,2.6,3.9,6.2,3.9,10.9
			c0,3.4-0.6,6.2-1.7,8.4c-1.1,2.2-2.8,3.9-5,5.1c-2.2,1.2-4.9,1.8-8.1,1.8c-3.3,0-6-0.5-8.2-1.6c-2.2-1-3.9-2.7-5.2-5
			C129.4,27.7,128.7,24.9,128.7,21.5z M137.7,21.5c0,2.9,0.5,5.1,1.6,6.3c1.1,1.3,2.6,1.9,4.5,1.9c1.9,0,3.4-0.6,4.5-1.9
			c1.1-1.3,1.6-3.5,1.6-6.8c0-2.7-0.6-4.7-1.7-6c-1.1-1.3-2.6-1.9-4.5-1.9c-1.8,0-3.3,0.6-4.4,1.9C138.3,16.4,137.7,18.6,137.7,21.5
			z"/>
	</g>
	<g>
		<path class="st1" d="M5.8,54.9v-7H11V49H7.2v1.6h3.5v1.2H7.2v1.9h3.9v1.2H5.8z"/>
		<path class="st1" d="M30.2,52.6l1.4-0.1c0.1,0.5,0.3,0.8,0.5,1c0.3,0.2,0.6,0.3,1,0.3c0.5,0,0.8-0.1,1-0.3
			c0.2-0.2,0.3-0.4,0.3-0.7c0-0.2,0-0.3-0.1-0.4c-0.1-0.1-0.3-0.2-0.5-0.3c-0.2-0.1-0.5-0.2-1.1-0.3c-0.8-0.2-1.3-0.4-1.6-0.7
			c-0.4-0.4-0.6-0.9-0.6-1.4c0-0.4,0.1-0.7,0.3-1c0.2-0.3,0.5-0.5,0.9-0.7c0.4-0.2,0.8-0.2,1.4-0.2c0.9,0,1.5,0.2,2,0.6
			c0.4,0.4,0.7,0.9,0.7,1.5l-1.4,0.1c-0.1-0.4-0.2-0.6-0.4-0.8c-0.2-0.2-0.5-0.2-0.9-0.2c-0.4,0-0.7,0.1-1,0.3
			c-0.1,0.1-0.2,0.3-0.2,0.4c0,0.2,0.1,0.3,0.2,0.4c0.2,0.1,0.6,0.3,1.3,0.5c0.7,0.2,1.2,0.3,1.5,0.5c0.3,0.2,0.6,0.4,0.8,0.7
			c0.2,0.3,0.3,0.7,0.3,1.1c0,0.4-0.1,0.8-0.3,1.1c-0.2,0.4-0.5,0.6-0.9,0.8c-0.4,0.2-0.9,0.3-1.5,0.3c-0.9,0-1.6-0.2-2-0.6
			C30.6,53.9,30.3,53.4,30.2,52.6z"/>
		<path class="st1" d="M57,54.9V49h-2.1v-1.2h5.6V49h-2.1v5.8H57z"/>
		<path class="st1" d="M79.5,47.8h1.4v3.8c0,0.6,0,1,0.1,1.2c0.1,0.3,0.2,0.5,0.4,0.7c0.2,0.2,0.5,0.3,0.9,0.3
			c0.4,0,0.7-0.1,0.9-0.2c0.2-0.2,0.3-0.4,0.4-0.6c0-0.2,0.1-0.6,0.1-1.2v-3.9h1.4v3.7c0,0.8,0,1.4-0.1,1.8
			c-0.1,0.3-0.2,0.6-0.4,0.9c-0.2,0.2-0.5,0.4-0.8,0.6c-0.3,0.1-0.8,0.2-1.3,0.2c-0.7,0-1.2-0.1-1.5-0.2c-0.3-0.2-0.6-0.4-0.8-0.6
			c-0.2-0.2-0.3-0.5-0.4-0.8c-0.1-0.4-0.1-1-0.1-1.8V47.8z"/>
		<path class="st1" d="M104,47.8h2.6c0.6,0,1,0,1.3,0.1c0.4,0.1,0.8,0.3,1.1,0.6c0.3,0.3,0.5,0.7,0.7,1.1c0.2,0.4,0.2,1,0.2,1.7
			c0,0.6-0.1,1.1-0.2,1.5c-0.2,0.5-0.4,0.9-0.8,1.2c-0.2,0.2-0.6,0.4-1,0.6c-0.3,0.1-0.7,0.1-1.3,0.1H104V47.8z M105.4,49v4.6h1.1
			c0.4,0,0.7,0,0.9-0.1c0.2-0.1,0.4-0.2,0.6-0.3c0.2-0.1,0.3-0.4,0.4-0.7c0.1-0.3,0.1-0.7,0.1-1.3s0-1-0.1-1.2
			c-0.1-0.3-0.2-0.5-0.4-0.7c-0.2-0.2-0.4-0.3-0.7-0.3c-0.2,0-0.6-0.1-1.2-0.1H105.4z"/>
		<path class="st1" d="M130.8,54.9v-7h1.4v7H130.8z"/>
		<path class="st1" d="M152.7,51.4c0-0.7,0.1-1.3,0.3-1.8c0.2-0.4,0.4-0.7,0.7-1c0.3-0.3,0.6-0.5,0.9-0.6c0.4-0.2,0.9-0.3,1.5-0.3
			c1,0,1.9,0.3,2.5,1c0.6,0.6,0.9,1.5,0.9,2.7c0,1.1-0.3,2-0.9,2.7c-0.6,0.6-1.4,1-2.5,1c-1,0-1.9-0.3-2.5-1
			C153,53.4,152.7,52.5,152.7,51.4z M154.2,51.3c0,0.8,0.2,1.4,0.5,1.8c0.4,0.4,0.8,0.6,1.4,0.6c0.6,0,1-0.2,1.4-0.6
			c0.4-0.4,0.5-1,0.5-1.8c0-0.8-0.2-1.4-0.5-1.8c-0.4-0.4-0.8-0.6-1.4-0.6c-0.6,0-1.1,0.2-1.4,0.6C154.4,49.9,154.2,50.5,154.2,51.3
			z"/>
	</g>
	<g>
		<path class="st1" d="M95.3,42c1.1-0.7,1.3-3.1,1.3-3.1l53.3,0.8L98,37.8c-0.2,0-0.9-0.1-1.3-0.3l-1-0.4v0l-0.4,0.5
			c0,0,0,0.2,0,1.2c0,1-0.4,2.2-0.8,2.4c-0.5,0.2-1.1,0-1.4-0.4c0,0,0,0,0,0h-0.1c-0.1,0.1-0.3,0.3-0.4,0.3c0,0,0,0,0,0
			c-0.1-0.1-0.2-0.1-0.2-0.2c0,0,0,0,0,0h-0.1c-0.1,0.1-0.2,0.2-0.2,0.2c-0.1,0-0.1,0-0.1,0c0,0-0.1-0.1-0.1-0.1c0,0,0,0,0,0h-0.1
			c0,0-0.1,0.1-0.1,0.1C70,41,36.1,41.2,13.9,41.9H7.6l0,0c1.1,0,2.1,0.1,3.1,0.1c-1,0-2.1,0.1-3.1,0.1l0,0h6.3
			c22.2,0.7,56.1,0.8,77.7,0.8c0,0,0.1,0.1,0.1,0.1h0.1c0,0,0,0,0,0c0-0.1,0.1-0.1,0.1-0.1c0,0,0.1,0,0.1,0c0.1,0.1,0.2,0.2,0.2,0.2
			h0.1c0,0,0,0,0,0c0.1-0.1,0.2-0.2,0.2-0.2c0,0,0,0,0,0c0.1,0,0.3,0.2,0.4,0.3h0.1c0,0,0,0,0,0c0.3-0.4,0.9-0.6,1.4-0.4
			c0.4,0.1,0.8,1.4,0.8,2.4c0,1,0,1.2,0,1.2l0.4,0.5v0l1-0.4c0.4-0.2,1.1-0.3,1.3-0.3l51.9-1.8l-53.3,0.8
			C96.6,45.1,96.4,42.6,95.3,42z M91.8,42.4c0,0-0.1-0.2-0.1-0.5c0-0.2,0.1-0.5,0.1-0.5c0,0.2,0.1,0.3,0.2,0.5
			C91.9,42.1,91.9,42.2,91.8,42.4z M92.4,42.5c0,0-0.1-0.3-0.1-0.6c0-0.3,0.1-0.6,0.1-0.6c0,0.2,0.1,0.5,0.2,0.6
			C92.5,42.1,92.4,42.3,92.4,42.5z M93.2,42.5c0,0-0.2-0.3-0.3-0.5c0.1-0.3,0.3-0.5,0.3-0.5c0.1,0.2,0.5,0.4,0.7,0.5
			C93.7,42.1,93.3,42.3,93.2,42.5z"/>
	</g>
	<path d="M10.7,42h81.1c0-0.2,0.1-0.5,0.1-0.5c0,0.2,0.1,0.3,0.2,0.5h0.3c0-0.3,0.1-0.6,0.1-0.6c0,0.2,0.1,0.5,0.2,0.6h0.3
		c0.1-0.3,0.3-0.5,0.3-0.5c0.1,0.2,0.5,0.4,0.7,0.5h1.4c1.1-0.7,1.3-3.1,1.3-3.1l53.3,0.8L98,37.8c-0.2,0-0.9-0.1-1.3-0.3l-1-0.4v0
		l-0.4,0.5c0,0,0,0.2,0,1.2c0,1-0.4,2.2-0.8,2.4c-0.5,0.2-1.1,0-1.4-0.4c0,0,0,0,0,0h-0.1c-0.1,0.1-0.3,0.3-0.4,0.3c0,0,0,0,0,0
		c-0.1-0.1-0.2-0.1-0.2-0.2c0,0,0,0,0,0h-0.1c-0.1,0.1-0.2,0.2-0.2,0.2c-0.1,0-0.1,0-0.1,0c0,0-0.1-0.1-0.1-0.1c0,0,0,0,0,0h-0.1
		c0,0-0.1,0.1-0.1,0.1C70,41,36.1,41.2,13.9,41.9H7.6l0,0C8.6,41.9,9.7,41.9,10.7,42z"/>
</g>
</svg>
